<?xml version="1.0" encoding="utf-8" ?>	<!-- Generator: Assembly 2.4 - http://assemblyapp.co -->	<svg version="1.1" xmlns="http://www.w3.org/2000/svg" xmlns:xlink="http://www.w3.org/1999/xlink" width="4096.00" height="4096.00" viewBox="0 0 4096.0 4096.0">		<g id="document" transform="scale(13.653333333333334 13.653333333333334) translate(150.0 150.0)">			<path d="M15.2446,242.291 C23.5264,242.291 30.2191,235.598 30.2191,227.316 L30.2191,212.097 L15.0001,212.097 C6.71827,212.097 0.0255547,218.79 0.0255557,227.072 L0.0255575,242.291 L15.2446,242.291 Z " fill="#a8dba8" fill-opacity="1.00" />			<path d="M59.7698,0.102246 C59.7698,-32.8512 33.0557,-59.5653 0.102246,-59.5653 C-32.8512,-59.5653 -59.5653,-32.8512 -59.5653,0.102246 C-59.5653,33.0557 -32.8512,59.7698 0.102246,59.7698 C33.0557,59.7698 59.7698,33.0557 59.7698,0.102246 Z " fill="#c62608" fill-opacity="1.00" />			<path d="M-39.9471,18.3385 C-39.9471,40.4146 -22.0761,58.2856 -5.56367e-06,58.2856 C22.0761,58.2856 39.9471,40.4146 39.9471,18.3385 L-39.9471,18.3385 Z " fill="#f3cc9e" fill-opacity="1.00" />			<path d="M10.5477,44.9939 C4.6638,50.8778 -4.86889,50.8778 -10.7528,44.9939 L-13.3244,47.5656 C-5.98642,54.9036 5.94292,54.9036 13.2809,47.5656 L10.615,44.8997 C10.615,44.9266 10.5881,44.9535 10.5477,44.9939 Z " fill="#020000" fill-opacity="1.00" />			<path d="M-40.0342,42.8167 L39.8601,42.8167 L39.8601,10.8775 L-40.0342,10.8774 L-40.0342,42.8167 Z " fill="#c72709" fill-opacity="1.00" />			<path d="M28.5614,42.6836 C39.5186,42.6836 48.3733,33.8289 48.3733,22.8718 L48.3733,2.73645 L28.2379,2.73645 C17.2808,2.73645 8.42611,11.5911 8.42611,22.5483 L8.42611,42.6836 L28.5614,42.6836 Z " fill="#fdfdfd" fill-opacity="1.00" />			<path d="M-28.6319,42.6886 C-39.589,42.6886 -48.4437,33.8339 -48.4437,22.8768 L-48.4437,2.74145 L-28.3084,2.74145 C-17.3512,2.74146 -8.49653,11.5961 -8.49654,22.5533 L-8.49654,42.6886 L-28.6319,42.6886 Z " fill="#fdfdfd" fill-opacity="1.00" />			<path d="M28.5121,40.928 C36.7939,40.9279 43.4866,34.2352 43.4866,25.9534 L43.4866,10.7344 L28.2676,10.7344 C19.9857,10.7344 13.293,17.4271 13.293,25.7089 L13.293,40.928 L28.5121,40.928 Z " fill="#f3cc9e" fill-opacity="1.00" />			<path d="M-28.5825,40.933 C-36.8643,40.933 -43.557,34.2402 -43.557,25.9584 L-43.557,10.7394 L-28.338,10.7394 C-20.0562,10.7394 -13.3634,17.4321 -13.3634,25.7139 L-13.3634,40.933 L-28.5825,40.933 Z " fill="#f3cc9e" fill-opacity="1.00" />			<path d="M-23.3528,38.6816 C-21.3985,39.81 -18.903,39.1413 -17.7747,37.187 C-16.6464,35.2327 -17.315,32.7372 -19.2693,31.6089 C-21.2236,30.4806 -23.7191,31.1492 -24.8474,33.1035 C-25.9758,35.0579 -25.3071,37.5533 -23.3528,38.6816 Z " fill="#020000" fill-opacity="1.00" />			<path d="M19.4879,38.6766 C21.4422,39.805 23.9377,39.1363 25.066,37.182 C26.1943,35.2277 25.5257,32.7322 23.5714,31.6039 C21.617,30.4756 19.1216,31.1442 17.9933,33.0985 C16.8649,35.0529 17.5336,37.5483 19.4879,38.6766 Z " fill="#020000" fill-opacity="1.00" />			<path d="M13.9366,-12.9273 L29.3823,-17.4249 L13.9366,-22.1 L23.7603,-34.9418 L8.61051,-29.5565 L9.14314,-45.6531 L-0.029583,-32.3379 L-9.02474,-45.7123 L-8.61051,-29.4973 L-23.7603,-34.9417 L-13.9958,-22.0999 L-29.3823,-17.6024 L-13.9958,-12.9272 L-23.8786,-0.144596 L-8.72884,-5.52986 L-9.26147,10.6852 L-0.147912,-2.68924 L8.96564,10.7443 L8.55142,-5.47069 L23.642,-0.0262677 L13.9366,-12.9273 Z M1.09483,-8.84393 C-4.82305,-8.13381 -9.67569,-13.0456 -8.96557,-18.9043 C-8.43295,-22.8693 -5.29651,-26.1241 -1.27232,-26.5976 C4.64556,-27.3077 9.4982,-22.3959 8.78808,-16.5372 C8.25545,-12.6314 5.05978,-9.37655 1.09483,-8.84393 Z " fill="#fdfdfd" fill-opacity="1.00" />		</g>	</svg>